<?xml version="1.0" encoding="UTF-8" standalone="no"?>
<!-- Created with Inkscape (http://www.inkscape.org/) -->

<svg
   width="2800"
   height="512"
   viewBox="0 0 740.8333 135.46667"
   version="1.1"
   id="svg1"
   inkscape:version="1.4.3 (0d15f75042, 2025-12-25)"
   sodipodi:docname="isologo2800x512.svg"
   xml:space="preserve"
   xmlns:inkscape="http://www.inkscape.org/namespaces/inkscape"
   xmlns:sodipodi="http://sodipodi.sourceforge.net/DTD/sodipodi-0.dtd"
   xmlns="http://www.w3.org/2000/svg"
   xmlns:svg="http://www.w3.org/2000/svg"><sodipodi:namedview
     id="namedview1"
     pagecolor="#ffffff"
     bordercolor="#000000"
     borderopacity="0.25"
     inkscape:showpageshadow="2"
     inkscape:pageopacity="0.0"
     inkscape:pagecheckerboard="0"
     inkscape:deskcolor="#d1d1d1"
     inkscape:document-units="mm"
     inkscape:zoom="0.18017502"
     inkscape:cx="-599.41718"
     inkscape:cy="152.62937"
     inkscape:window-width="1920"
     inkscape:window-height="1012"
     inkscape:window-x="0"
     inkscape:window-y="0"
     inkscape:window-maximized="1"
     inkscape:current-layer="g4" /><defs
     id="defs1" /><g
     inkscape:label="Capa 1"
     inkscape:groupmode="layer"
     id="layer1"><rect
       x="-732.77069"
       y="-4471.5103"
       class="st0"
       width="1925.2043"
       height="6282.2461"
       id="rect1"
       style="fill:#ffffff;stroke-width:3.16645" /><g
       id="g1-3"
       transform="scale(0.41341146)">
	<path
   class="st0"
   d="m 426.16,54.694 c -13.842,0 -25.068,11.225 -25.068,25.068 V 237.008 H 380.324 V 31.148 c 0,-13.843 -11.226,-25.068 -25.068,-25.068 -13.843,0 -25.068,11.225 -25.068,25.068 V 237.007 H 309.429 V 25.068 C 309.428,11.225 298.202,0 284.36,0 270.517,0 259.292,11.225 259.292,25.068 v 211.94 H 235.497 V 73.691 c 0,-13.843 -11.226,-25.068 -25.068,-25.068 -13.843,0 -25.068,11.225 -25.068,25.068 v 188.384 33.427 c 0.107,0.943 -0.819,3.863 -2.6,5.67 -0.845,0.926 -1.771,1.576 -2.572,1.95 -0.828,0.365 -1.487,0.534 -2.412,0.543 -0.829,-0.009 -1.924,-0.134 -3.677,-0.828 -2.59,-1.042 -6.738,-3.552 -11.911,-9.259 -5.154,-5.679 -11.189,-14.492 -17.297,-27.186 -14.208,-29.43 -23.848,-45.08 -31.317,-54.739 -3.784,-4.834 -7.024,-8.243 -10.798,-11.118 -1.896,-1.433 -3.962,-2.724 -6.41,-3.801 -2.43,-1.068 -5.288,-1.914 -8.43,-2.172 -7.754,-0.65 -15.293,2.288 -20.564,8.03 -5.261,5.733 -7.549,13.496 -6.24,21.168 0.382,2.137 1.904,9.882 9.222,30.784 7.317,20.875 20.466,54.836 44.207,108.783 18.392,41.697 46.299,78.008 78.729,104.625 16.238,13.3 33.65,24.169 51.846,31.861 18.178,7.672 37.21,12.178 56.448,12.186 26.973,0.044 50.866,-6.908 70.46,-18.267 14.715,-8.502 27.026,-19.344 37.13,-31.166 15.151,-17.768 25.451,-37.692 32.154,-56.688 6.676,-19.086 9.854,-37.086 9.898,-52.647 0,-2.458 0,-4.451 0,-6.08 0,-4.416 0,-6.063 0,-6.08 V 79.762 C 451.228,65.919 440.003,54.694 426.16,54.694 Z"
   id="path1-20" />
</g><g
       id="g16"
       transform="matrix(0.20670573,0,0,0.20670573,647.62672,-350.26622)" /><g
       id="g40"
       transform="translate(-2.6841873,-2.03089)"><g
         id="g3"><g
           id="g4"
           transform="translate(302.68334)"><g
             id="g5"><rect
               style="opacity:1;fill:none;fill-opacity:1;stroke-width:8.67265;stroke-linecap:square;stroke:none"
               id="rect38"
               width="740.83331"
               height="135.46666"
               x="-299.99915"
               y="2.0308936"
               ry="7.7405591" /><g
               id="g38"
               transform="matrix(1.9291773,0,0,1.9291773,1777.7804,-312.99433)"><g
                 id="g2"
                 transform="matrix(1.1399377,0,0,1.1399377,107.24722,-26.578584)"><g
                   style="fill:#ffffff"
                   id="g1"
                   transform="matrix(2.628282,0,0,2.628282,-1037.8332,166.82423)"><g
                     id="g36"><path
                       d="m 14.1297,11.3401 c 0.39,-1.64002 -1.04,-3.07007 -2.68,-2.68007 -0.77,0.19 -1.4,0.82002 -1.58996,1.59007 -0.39,1.64 1.03996,3.0699 2.67996,2.6799 0.78,-0.19 1.41,-0.8199 1.59,-1.5899 z"
                       fill="#292d32"
                       id="path1"
                       style="fill:#ffffff" /><path
                       opacity="0.4"
                       d="m 6.02094,17.97 c -0.18001,0 -0.37001,-0.07 -0.51001,-0.2 -1.94,-1.8 -3.04999,-4.34 -3.04999,-6.98 0,-5.26002 4.27999,-9.54 9.53996,-9.54 5.26,0 9.54,4.27998 9.54,9.54 0,2.66 -1.07,5.12 -3.01,6.95 -0.3,0.28 -0.78,0.27 -1.06,-0.03 -0.28,-0.3 -0.27,-0.78 0.03,-1.06 1.64,-1.54 2.54,-3.61 2.54,-5.85 0,-4.43001 -3.61,-8.03999 -8.04,-8.03999 -4.42997,0 -8.03996,3.60998 -8.03996,8.03999 0,2.26 0.90999,4.34 2.56999,5.88 0.3,0.28 0.32001,0.76 0.04001,1.06 -0.15,0.15 -0.35,0.23 -0.55,0.23 z"
                       fill="#292d32"
                       id="path2"
                       style="opacity:1;fill:#5aa519" /><path
                       opacity="0.4"
                       d="m 15.9995,15.3 c -0.18,0 -0.37,-0.07 -0.51,-0.2 -0.3,-0.28 -0.32,-0.76 -0.03,-1.06 0.83,-0.88 1.29,-2.04 1.29,-3.24 0,-2.61995 -2.13,-4.73994 -4.74,-4.73994 -2.60998,0 -4.73997,2.12999 -4.73997,4.73994 0,1.21 0.45999,2.36 1.28999,3.24 0.28,0.3 0.27001,0.78 -0.02999,1.06 -0.3,0.29 -0.78,0.2701 -1.06,-0.0299 -1.09,-1.16 -1.7,-2.6801 -1.7,-4.2701 0,-3.43995 2.79999,-6.23994 6.23997,-6.23994 3.44,0 6.24,2.79999 6.24,6.23994 0,1.59 -0.6,3.1101 -1.7,4.2701 -0.15,0.15 -0.35,0.2299 -0.55,0.2299 z"
                       fill="#292d32"
                       id="path3"
                       style="opacity:1;fill:#5aa519" /><path
                       d="m 10.3007,16.66 -1.43999,1.7901 c -1.14,1.43 -0.13,3.5399 1.69999,3.5399 h 2.87 c 1.83,0 2.85,-2.1199 1.7,-3.5399 l -1.44,-1.7901 c -0.86,-1.09 -2.52,-1.09 -3.39,0 z"
                       fill="#292d32"
                       id="path4"
                       style="fill:#ffffff" /></g></g><g
                   id="g37"
                   transform="matrix(1.046929,0,0,1.046929,121.99793,-115.20957)"><g
                     id="g35"
                     style="fill:#5aa519"><path
                       style="font-weight:850;font-size:50.8px;font-family:Uniwars;-inkscape-font-specification:'Uniwars weight=850';text-align:center;text-anchor:middle;fill:#5aa519;stroke-width:4;stroke-linecap:square"
                       d="m -794.27525,315.75891 v -23.2156 c 0,-7.4168 -3.5052,-11.176 -10.8712,-11.176 h -47.0916 v 34.3916 h 11.7348 v -23.6728 h 11.3284 v 23.6728 h 11.7348 v -23.6728 h 9.7536 c 1.1176,0 1.6764,0.5588 1.6764,1.6256 v 22.0472 z"
                       id="path34" /><path
                       style="font-weight:850;font-size:50.8px;font-family:Uniwars;-inkscape-font-specification:'Uniwars weight=850';text-align:center;text-anchor:middle;fill:#5aa519;stroke-width:4;stroke-linecap:square"
                       d="m -855.79407,307.07211 v -9.652 h -34.6456 v -5.2832 h 34.9504 v -10.7696 h -46.6344 v 34.3916 h 11.684 v -8.6868 z"
                       id="path33" /></g><g
                     id="g34"><path
                       style="font-weight:850;font-size:50.8px;font-family:Uniwars;-inkscape-font-specification:'Uniwars weight=850';text-align:center;text-anchor:middle;fill:#ffffff;stroke-width:4;stroke-linecap:square"
                       d="m -906.69567,315.75891 v -18.7452 h -11.684 v 8.9408 h -21.9456 c -0.5588,0 -0.8636,-0.3048 -0.8636,-0.9144 v -11.3284 c 0,-1.0668 0.508,-1.6256 1.6764,-1.6256 h 31.9532 v -10.7188 h -34.4932 c -7.4676,0 -10.922,3.7084 -10.922,11.176 v 14.1224 c 0,6.35 2.2352,9.0932 8.3312,9.0932 z"
                       id="path32" /><path
                       id="path31"
                       style="font-weight:850;font-size:50.8px;font-family:Uniwars;-inkscape-font-specification:'Uniwars weight=850';text-align:center;text-anchor:middle;fill:#ffffff;stroke-width:4;stroke-linecap:square"
                       d="m -1002.6571,281.36732 v 10.71873 h 32.30909 c 1.1176,0 1.67639,0.55894 1.67639,1.62574 v 1.93011 h -26.67021 c -6.04527,0 -8.22947,2.74345 -8.22947,7.77265 v 4.57182 c 0,5.0292 2.1842,7.77265 8.22947,7.77265 h 38.40489 v -23.21564 c 0,-7.4676 -3.45437,-11.17606 -10.87117,-11.17606 z m 11.684,20.82819 h 22.30148 v 3.75894 h -22.30148 c -0.6096,0 -0.91416,-0.30455 -0.91416,-0.91415 v -1.93064 c 0,-0.6096 0.30456,-0.91415 0.91416,-0.91415 z" /><path
                       style="font-weight:850;font-size:50.8px;font-family:Uniwars;-inkscape-font-specification:'Uniwars weight=850';text-align:center;text-anchor:middle;fill:#ffffff;stroke-width:4;stroke-linecap:square"
                       d="m -1006.3145,315.75891 v -10.8204 h -25.7556 c -1.1176,0 -1.6764,-0.5588 -1.6764,-1.5748 v -21.9964 h -11.7348 v 23.2156 c 0,7.4676 3.4544,11.176 10.8712,11.176 z"
                       id="text30" /></g></g></g></g></g></g></g></g><g
       id="g176"
       transform="translate(330.27253,0.89078243)"><g
         id="g273"
         transform="translate(-40.016069,-73.42398)"><g
           id="g272"
           transform="matrix(0.52304081,0,0,0.52304081,-297.96649,12.81594)" /></g></g></g><style
     type="text/css"
     id="style1">
	.flatshadows_een{fill:#FDFFFF;}
	.flatshadows_twee{fill:#E1E5E5;}
	.flatshadows_drie{fill:#C4CCCC;}
	.flatshadows_vier{fill:#A3AFAF;}
	.flatshadows_vijf{fill:#8D9999;}
	.st0{fill:#C4CCCC;}
	.st1{fill:#E1E5E5;}
</style><style
     type="text/css"
     id="style1-1">
	.st0{display:none;fill:#2B3544;}
	.st1{fill:#E0E0D1;}
	.st2{opacity:0.2;fill:#231F20;}
	.st3{fill:#C75C5C;}
	.st4{fill:none;stroke:#4F5D73;stroke-width:4;stroke-linecap:round;stroke-miterlimit:10;}
	.st5{fill:none;stroke:#4F5D73;stroke-width:5;stroke-linecap:round;stroke-miterlimit:10;}
</style><style
     type="text/css"
     id="style1-6">
	.st0{fill:#000000;}
</style></svg>
